<svg xmlns="http://www.w3.org/2000/svg" version="1.1" xmlns:xlink="http://www.w3.org/1999/xlink" width="512px" height="512px"><svg width="512px" height="512px" viewBox="0 0 512 512" version="1.1" xmlns="http://www.w3.org/2000/svg" xmlns:xlink="http://www.w3.org/1999/xlink">
    <title>512x512@1x</title>
    <defs>
        <path d="M0,0 L512,0 L512,512 L0,512 L0,0 Z" id="SvgjsPath1050"></path>
    </defs>
    <g id="SvgjsG1049" stroke="none" fill="none" xlink:href="#path-1">
        <use fill="#FFFFFF" fill-rule="evenodd" xlink:href="#path-1"></use>
        <g id="SvgjsG1048" stroke-width="1" fill-rule="evenodd" transform="translate(-137, -182)">
            <g id="SvgjsG1047" transform="translate(393, 438) scale(-1, 1) rotate(-180) translate(-393, -438)" fill-rule="nonzero">
                <path d="M196.500853,324.705182 L196.500853,324.705182 L13.1619607,218.995739 C21.6452891,204.32784 33.9264857,191.850324 49.1264935,183.08879 L196.500853,98.1155455 L196.500853,324.705182 L196.500853,324.705182 Z" id="SvgjsPath1046" fill="#4C9EDC"></path>
                <path d="M0,438 L0,268.062034 C0,250.530443 4.68546002,233.67216 13.1602538,219.004261 L196.499147,324.705182 L0,438 L0,438 Z" id="SvgjsPath1045" fill="#498CD2"></path>
                <polygon id="SvgjsPolygon1044" fill="#487DC8" points="196.500853 324.705182 196.500853 551.294818 0.00170690711 438 0.00170690711 438"></polygon>
                <path d="M196.500853,98.1163978 L196.500853,98.1163978 L343.875213,13.1431535 C359.075221,4.38161935 376.041878,0.000852289311 393,0.000852289311 L393,211.411216 L196.500853,98.1163978 L196.500853,98.1163978 Z" id="SvgjsPath1043" fill="#5295D6"></path>
                <path d="M13.1628142,657.000852 C4.67948584,642.332953 0.00256036067,625.466148 0.00256036067,607.94308 L0.00256036067,437.996591 L196.501707,551.291409 L13.1628142,657.000852 L13.1628142,657.000852 Z" id="SvgjsPath1042" fill="#476BBC"></path>
                <polygon id="SvgjsPolygon1041" fill="#7F9AD6" points="589.500853 98.1163978 589.500853 324.706034 393.001707 211.411216"></polygon>
                <path d="M772.838893,219 C781.322221,233.667899 785.999147,250.534705 785.999147,268.057773 L785.999147,437.995739 L589.5,324.70092 L772.838893,219 L772.838893,219 Z" id="SvgjsPath1040" fill="#727EBD"></path>
                <path d="M589.500853,324.705182 L589.500853,98.1155455 L736.875213,183.08879 C752.075221,191.850324 764.356418,204.32784 772.839746,219.004261 L589.500853,324.705182 L589.500853,324.705182 Z" id="SvgjsPath1039" fill="#8F9FD8"></path>
                <polygon id="SvgjsPolygon1038" fill="#425DA2" points="589.500853 551.294818 589.500853 551.294818 589.500853 324.705182 786 438 786 438"></polygon>
                <path d="M393.000853,211.410364 L393.000853,-1.04173295e-13 C409.958976,-1.04173295e-13 426.925632,4.38076706 442.12564,13.1423012 L589.5,98.1155455 L393.000853,211.410364 L393.000853,211.410364 Z" id="SvgjsPath1037" fill="#6495D5"></path>
                <polygon id="SvgjsPolygon1036" fill="#3A64AD" points="393.000853 664.589636 196.501707 777.884454 196.501707 551.294818"></polygon>
                <polygon id="SvgjsPolygon1035" fill="#3A61A3" points="393.000853 664.589636 589.5 551.294818 589.5 777.884454"></polygon>
                <path d="M13.1628142,657.000852 L196.501707,551.291409 L196.501707,777.881045 L49.127347,692.916324 C33.9273392,684.146267 21.6461425,671.668751 13.1628142,657.000852" id="SvgjsPath1034" fill="#32549D"></path>
                <path d="M589.500853,551.294818 L786,438 L786,607.937966 C786,625.469557 781.323075,642.32784 772.839746,657.004261 L589.500853,551.294818 L589.500853,551.294818 Z" id="SvgjsPath1033" fill="#2F5296"></path>
                <path d="M589.500853,551.294818 L772.839746,657.004261 C764.356418,671.67216 752.075221,684.149676 736.875213,692.91121 L589.500853,777.884454 L589.500853,551.294818 Z" id="SvgjsPath1032" fill="#325295"></path>
                <path d="M196.500853,324.705182 L393,211.410364 L393,381.348329 C393,398.879921 388.323075,415.738203 379.839746,430.414625 L196.500853,324.705182 L196.500853,324.705182 Z" id="SvgjsPath1031" fill="#6AAEE3"></path>
                <path d="M196.500853,324.705182 L379.839746,430.414625 C371.356418,445.082524 359.075221,457.56004 343.875213,466.321574 L196.500853,551.294818 L196.500853,324.705182 L196.500853,324.705182 Z" id="SvgjsPath1030" fill="#50A0DD"></path>
                <path d="M589.500853,777.884454 L442.117959,862.857699 C426.917951,871.619233 409.959829,876 393.001707,876 L393.001707,664.589636 L589.500853,777.884454 L589.500853,777.884454 Z" id="SvgjsPath1029" fill="#4379C6"></path>
                <path d="M393.000853,664.589636 L393.000853,876 C376.042731,876 359.076075,871.619233 343.884601,862.857699 L196.501707,777.884454 L393.000853,664.589636 L393.000853,664.589636 Z" id="SvgjsPath1028" fill="#3F73BD"></path>
                <polygon id="SvgjsPolygon1027" fill="#50A0DD" points="196.500853 98.1163978 393 211.411216 196.500853 324.706034"></polygon>
            </g>
        </g>
        <polygon id="SvgjsPolygon1026" fill="#3A64AD" fill-rule="nonzero" points="379 111 133 111 133 188.314286 212.796545 188.314286 212.796545 441 299.203455 441 299.203455 188.314286 379 188.314286"></polygon>
    </g>
</svg><style>@media (prefers-color-scheme: light) { :root { filter: none; } }
@media (prefers-color-scheme: dark) { :root { filter: none; } }
</style></svg>