<?xml version="1.0" encoding="UTF-8"?>
<svg width="1280px" height="640px" viewBox="0 0 1280 640" version="1.1" xmlns="http://www.w3.org/2000/svg" xmlns:xlink="http://www.w3.org/1999/xlink">
    <title>logo</title>
    <g id="logo" stroke="none" fill="none" fill-rule="evenodd" stroke-width="1">
        <g id="gauche" transform="translate(2, 258.8061)">
            <path d="M345.522606,367.098726 L274.880682,244.742709 L383.531658,244.742709 C393.624458,244.742709 403.341461,247.442303 411.79303,252.319978 L345.522606,367.098726 Z" id="Path" fill="#CCC" fill-rule="nonzero" transform="translate(343.3369, 305.9207) scale(-1, 1) rotate(-180) translate(-343.3369, -305.9207)"></path>
            <path d="M411.791496,244.744243 C420.243065,249.621918 427.429199,256.685344 432.483268,265.428346 L486.804922,359.522991 L345.521073,359.522991 L411.791496,244.744243 Z" id="Path" fill="#CCC" fill-rule="nonzero" transform="translate(416.163, 302.1336) scale(-1, 1) rotate(-180) translate(-416.163, -302.1336)"></path>
            <polygon id="Path" fill="#CCC" fill-rule="nonzero" transform="translate(133.5508, 183.5471) scale(-1, 1) rotate(-180) translate(-133.5508, -183.5471)" points="133.539313 244.740409 62.8973884 122.384393 62.9203963 122.353715 204.204245 122.353715"></polygon>
            <path d="M1.00230079,244.709731 C1.00230079,234.954382 3.52550057,225.191362 8.57190013,216.44836 L62.9012231,122.353715 L133.543148,244.709731 L1.00230079,244.709731 Z" id="Path" fill="#CCC" fill-rule="nonzero" transform="translate(67.2727, 183.5317) scale(-1, 1) rotate(-180) translate(-67.2727, -183.5317)"></path>
            <path d="M62.8989223,122.356016 L8.57726864,28.2613714 C3.52319978,19.5183691 1,9.76301921 1,0 L133.540847,0 L62.8989223,122.356016 Z" id="Path" fill="#CCC" fill-rule="nonzero" transform="translate(67.2704, 61.178) scale(-1, 1) rotate(-180) translate(-67.2704, -61.178)"></path>
            <path d="M137.932288,252.31461 C146.383857,247.436935 156.093191,244.74501 166.19366,244.74501 L274.844636,244.74501 L204.202712,367.093357 L137.932288,252.31461 Z" id="Path" fill="#CCC" fill-rule="nonzero" transform="translate(206.3885, 305.9192) scale(-1, 1) rotate(-180) translate(-206.3885, -305.9192)"></path>
            <path d="M62.9196294,359.521457 L117.241283,265.426812 C122.295352,256.68381 129.481486,249.620384 137.933055,244.742709 L204.203478,359.521457 L62.9196294,359.521457 Z" id="Path" fill="#CCC" fill-rule="nonzero" transform="translate(133.5616, 302.1321) scale(-1, 1) rotate(-180) translate(-133.5616, -302.1321)"></path>
            <polygon id="Path" fill="#CCC" fill-rule="nonzero" transform="translate(274.8615, 305.9207) scale(-1, 1) rotate(-180) translate(-274.8615, -305.9207)" points="204.200411 367.098726 274.842335 244.742709 274.880682 244.742709 345.522606 367.098726"></polygon>
        </g>
        <g id="forum" transform="translate(192.4309, 196.6656)">
            <polygon id="Path" fill="#CCC" fill-rule="nonzero" transform="translate(36.2221, 67.2214) scale(-1, 1) rotate(-180) translate(-36.2221, -67.2214)" points="67.4975115 55.1767806 26.4284086 55.1767806 26.4284086 1.79078161 0 1.79078161 0 132.652052 72.4442101 132.652052 72.4442101 110.625821 26.4284086 110.625821 26.4284086 77.10331 67.4975115 77.10331"></polygon>
            <path d="M151.822235,77.3832395 C151.822235,89.1862925 150.142658,97.9676413 146.791174,103.719617 C143.43202,109.471592 138.224565,112.347579 131.15347,112.347579 C124.14373,112.347579 118.959283,109.571293 115.60013,104.034058 C112.248645,98.4891537 110.507714,90.0529235 110.392675,78.7330363 L110.392675,55.4567101 C110.392675,44.0064448 112.095259,35.5778838 115.515767,30.1556886 C118.928606,24.7334933 124.197415,22.018561 131.329864,22.018561 C138.224565,22.018561 143.347658,24.6721389 146.699142,29.9716254 C150.058296,35.2787811 151.76088,43.500271 151.822235,54.6437642 L151.822235,77.3832395 Z M178.335006,55.4567101 C178.335006,37.9016818 174.185914,24.265666 165.887731,14.5640012 C157.589548,4.85466705 146.070259,0 131.329864,0 C116.650824,0 105.116196,4.80865125 96.7259816,14.4259538 C88.3434364,24.0432563 84.0869748,37.5105475 83.964266,54.8278274 L83.964266,77.2068456 C83.964266,95.176016 88.128696,109.210835 96.4575561,119.311304 C104.786416,129.404103 116.351721,134.450503 131.15347,134.450503 C145.709802,134.450503 157.183075,129.496135 165.57329,119.579729 C173.963504,109.663324 178.212297,95.7512136 178.335006,77.8357282 L178.335006,55.4567101 Z" id="Shape" fill="#CCC" fill-rule="nonzero" transform="translate(131.1496, 67.2253) scale(-1, 1) rotate(-180) translate(-131.1496, -67.2253)"></path>
            <path d="M223.624524,71.623595 L238.633345,71.623595 C243.909823,71.623595 247.859513,73.3798647 250.497752,76.884735 C253.135992,80.3896052 254.455111,85.0755476 254.455111,90.9502316 C254.455111,104.064735 249.332019,110.629656 239.085834,110.629656 L223.624524,110.629656 L223.624524,71.623595 Z M236.746697,49.605034 L223.624524,49.605034 L223.624524,1.79461626 L197.203785,1.79461626 L197.203785,132.648217 L239.354259,132.648217 C252.591471,132.648217 262.822318,129.22004 270.046799,122.356016 C277.26361,115.499662 280.875851,105.744312 280.875851,93.105305 C280.875851,75.7266706 274.556347,63.5631604 261.909671,56.6147744 L284.82554,3.0523815 L284.82554,1.79461626 L256.426121,1.79461626 L236.746697,49.605034 Z" id="Shape" fill="#CCC" fill-rule="nonzero" transform="translate(241.0147, 67.2214) scale(-1, 1) rotate(-180) translate(-241.0147, -67.2214)"></path>
            <path d="M383.189684,134.450503 L383.189684,43.8530588 C383.066976,30.2553895 379.324357,19.848149 371.95416,12.6236682 C364.583962,5.40685667 354.007997,1.79461626 340.226264,1.79461626 C326.206784,1.79461626 315.50044,5.45287247 308.099566,12.7617156 C300.698691,20.0705587 297.002088,30.6465238 297.002088,44.4896107 L297.002088,134.450503 L323.599221,134.450503 L323.599221,44.3975791 C323.599221,36.9660272 324.803302,31.6665407 327.196123,28.4914504 C329.596614,25.3163601 333.937438,23.7211457 340.226264,23.7211457 C346.52276,23.7211457 350.832907,25.3010215 353.172043,28.4454346 C355.51118,31.5898477 356.707591,36.7589561 356.768945,43.9450904 L356.768945,134.450503 L383.189684,134.450503 Z" id="Path" fill="#CCC" fill-rule="nonzero" transform="translate(340.0959, 68.1226) scale(-1, 1) rotate(-180) translate(-340.0959, -68.1226)"></path>
            <polygon id="Path" fill="#CCC" fill-rule="nonzero" transform="translate(463.1345, 67.2214) scale(-1, 1) rotate(-180) translate(-463.1345, -67.2214)" points="438.462331 132.648217 463.180486 38.009052 487.806609 132.648217 522.31846 132.648217 522.31846 1.79461626 495.805689 1.79461626 495.805689 37.2037755 498.229188 91.7555081 472.076874 1.79461626 454.100034 1.79461626 427.947721 91.7555081 430.371219 37.2037755 430.371219 1.79461626 403.95048 1.79461626 403.95048 132.648217"></polygon>
            <path d="M570.24085,69.8320464 L588.394083,69.8320464 C593.425144,69.8320464 597.321149,71.480946 600.082097,74.7787451 C602.835376,78.0688749 604.21585,82.8621876 604.21585,89.1586831 C604.21585,95.6852576 602.804698,100.885043 599.990065,104.75037 C597.175432,108.615698 593.402136,110.571369 588.662509,110.632724 L570.24085,110.632724 L570.24085,69.8320464 Z M570.24085,47.8134854 L570.24085,1.79768398 L543.82011,1.79768398 L543.82011,132.651285 L588.394083,132.651285 C601.339862,132.651285 611.655071,128.640241 619.355048,120.610483 C627.055026,112.580726 630.905015,102.158147 630.905015,89.335077 C630.905015,76.512007 627.101042,66.3885306 619.493096,58.9569787 C611.88515,51.5254268 601.339862,47.8134854 587.857232,47.8134854 L570.24085,47.8134854 Z" id="Shape" fill="#CCC" fill-rule="nonzero" transform="translate(587.3626, 67.2245) scale(-1, 1) rotate(-180) translate(-587.3626, -67.2245)"></path>
            <polygon id="Path" fill="#CCC" fill-rule="nonzero" transform="translate(693.1514, 67.2253) scale(-1, 1) rotate(-180) translate(-693.1514, -67.2253)" points="739.032945 1.79845091 712.696568 1.79845091 712.696568 57.792012 673.690507 57.792012 673.690507 1.79845091 647.269767 1.79845091 647.269767 132.652052 673.690507 132.652052 673.690507 79.7185414 712.696568 79.7185414 712.696568 132.652052 739.032945 132.652052"></polygon>
            <path d="M786.920822,69.8320464 L805.074056,69.8320464 C810.105117,69.8320464 814.001122,71.480946 816.76207,74.7787451 C819.515349,78.0688749 820.895823,82.8621876 820.895823,89.1586831 C820.895823,95.6852576 819.484671,100.885043 816.670038,104.75037 C813.855405,108.615698 810.082109,110.571369 805.342482,110.632724 L786.920822,110.632724 L786.920822,69.8320464 Z M786.920822,47.8134854 L786.920822,1.79768398 L760.500083,1.79768398 L760.500083,132.651285 L805.074056,132.651285 C818.019835,132.651285 828.335044,128.640241 836.035021,120.610483 C843.734999,112.580726 847.584987,102.158147 847.584987,89.335077 C847.584987,76.512007 843.781015,66.3885306 836.173069,58.9569787 C828.565123,51.5254268 818.019835,47.8134854 804.537205,47.8134854 L786.920822,47.8134854 Z" id="Shape" fill="#CCC" fill-rule="nonzero" transform="translate(804.0425, 67.2245) scale(-1, 1) rotate(-180) translate(-804.0425, -67.2245)"></path>
        </g>
        <g id="paris" transform="translate(325.3207, 359.9008)">
            <path d="M20.7224493,35.1259103 L28.4531039,35.1259103 C34.0363545,35.1259103 38.7069583,36.521723 42.4649155,39.3133483 C46.2228726,42.1049735 48.1018511,46.3614352 48.1018511,52.0904025 C48.1018511,63.1802106 41.5522687,68.732784 28.4531039,68.732784 L20.7224493,68.732784 L20.7224493,35.1259103 Z M30.3857676,0.982185629 L0,0.982185629 L0,5.70647458 L9.77068851,9.24969129 L9.77068851,68.5180436 L0,72.053591 L0,76.7855492 L33.4995035,76.7855492 C40.0797631,76.7855492 45.9161006,74.6151373 51.0008466,70.2896519 C56.0779234,65.9641666 58.6241311,59.8747422 58.6241311,52.0367174 C58.6241311,44.1986925 56.2236401,38.1169374 51.4303274,33.7837828 C46.6370148,29.4506281 40.6626299,27.2878855 33.4995035,27.2878855 L20.6150791,27.2878855 L20.6150791,9.24969129 L30.3857676,5.70647458 L30.3857676,0.982185629 Z" id="Shape" fill="#CCC" fill-rule="nonzero" transform="translate(29.3121, 38.8839) scale(-1, 1) rotate(-180) translate(-29.3121, -38.8839)"></path>
            <path d="M107.848768,35.5576919 L96.4751955,65.7363884 L85.5157654,35.5576919 L107.848768,35.5576919 Z M138.671685,0.984486419 L109.459321,0.984486419 L109.459321,5.70877537 L118.263677,9.25199208 L110.640393,28.2565181 L82.7318095,28.2565181 L75.1008557,9.25199208 L83.6981413,5.70877537 L83.6981413,0.984486419 L55.567148,0.984486419 L55.567148,5.70877537 L64.3638354,9.25199208 L90.7769054,76.78785 L101.836036,76.78785 L129.322808,9.25199208 L138.671685,5.70877537 L138.671685,0.984486419 Z" id="Shape" fill="#CCC" fill-rule="nonzero" transform="translate(97.1194, 38.8862) scale(-1, 1) rotate(-180) translate(-97.1194, -38.8862)"></path>
            <path d="M166.843326,39.8563347 L179.29827,39.8563347 C183.593078,39.8563347 187.151633,41.014399 189.981605,43.3458663 C192.811577,45.6696643 194.222728,49.3355898 194.222728,54.3513122 C194.222728,59.3593652 192.359088,63.0099521 188.639477,65.2954036 C184.912197,67.5885244 180.226255,68.7389194 174.573981,68.7389194 L166.843326,68.7389194 L166.843326,39.8563347 Z M215.911509,0.988321069 L187.673145,0.988321069 L187.673145,6.14209083 L194.544839,8.93371612 L180.157231,32.0183099 L166.735956,32.0183099 L166.735956,9.25582673 L176.506644,5.71261002 L176.506644,0.988321069 L146.120877,0.988321069 L146.120877,5.71261002 L155.891565,9.25582673 L155.891565,68.5165097 L146.120877,72.0597264 L146.120877,76.7840154 L179.62038,76.7840154 C186.990578,76.7840154 193.026317,74.9280447 197.71226,71.2084341 C202.398202,67.4888235 204.745008,61.8288799 204.745008,54.243942 C204.745008,44.1511428 200.020719,37.4251665 190.572141,34.0506744 L206.14082,9.67763825 L215.911509,6.14209083 L215.911509,0.988321069 Z" id="Shape" fill="#CCC" fill-rule="nonzero" transform="translate(181.0162, 38.8862) scale(-1, 1) rotate(-180) translate(-181.0162, -38.8862)"></path>
            <polygon id="Path" fill="#CCC" fill-rule="nonzero" transform="translate(239.7876, 38.8854) scale(-1, 1) rotate(-180) translate(-239.7876, -38.8854)" points="254.980458 0.983719489 224.594691 0.983719489 224.594691 5.70800844 234.365379 9.25122515 234.365379 68.5195774 224.594691 72.0627942 224.594691 76.7870831 254.980458 76.7870831 254.980458 72.0627942 245.217439 68.5195774 245.217439 9.25122515 254.980458 5.70800844"></polygon>
            <path d="M267.038899,21.5972647 L273.481111,21.5972647 L276.479808,11.6118358 C279.279102,9.3877387 283.819328,8.28335946 290.123493,8.28335946 C294.203561,8.28335946 297.478352,9.3570615 299.940197,11.5044656 C302.409712,13.6518696 303.644469,16.3514633 303.644469,19.6109159 C303.644469,22.8626992 302.310011,25.9380886 299.618087,28.8447534 C296.933831,31.7437489 292.339921,34.4126654 285.821015,36.8438336 C273.511788,41.4990988 267.36101,48.0026654 267.36101,56.3852106 C267.36101,63.394951 269.577437,68.7481226 274.010293,72.437056 C278.450818,76.1183201 283.888352,77.9666215 290.330564,77.9666215 C298.206935,77.9666215 304.932912,76.6398325 310.523831,73.993924 C311.168053,73.7101598 311.773927,73.3803799 312.341456,73.0275921 L312.341456,58.3178743 L306.006614,58.1031339 L303.544768,66.8001203 C300.607426,68.3033032 296.780445,69.0472253 292.056156,69.0472253 C282.392838,69.0472253 277.55351,65.9718359 277.55351,59.8133878 C277.55351,56.3852106 278.86496,53.5399002 281.480191,51.2851259 C284.087754,49.0303517 288.152483,46.8982862 293.66671,44.8965988 C307.126331,39.9575695 313.852308,32.0811981 313.852308,21.2751541 C313.852308,14.9786586 311.735581,9.85556601 307.509796,5.92121499 C303.291681,1.97919466 297.17158,0.0158537978 289.157161,0.0158537978 C285.498905,0.0158537978 281.894334,0.483681113 278.31277,1.41166644 C273.082308,2.84582559 269.324351,4.45637864 267.038899,6.2433256 L267.038899,21.5972647 Z" id="Path" fill="#CCC" fill-rule="nonzero" transform="translate(290.4456, 38.9912) scale(-1, 1) rotate(-180) translate(-290.4456, -38.9912)"></path>
            <path d="M400.490371,76.505 L348.381371,76.505 L348.381371,68.48 C352.376038,65.8406667 356.709538,62.6128333 361.381871,58.7965 C366.054204,54.9801667 370.066704,51.36 373.419371,47.936 C376.772038,44.512 379.839371,40.5708333 382.621371,36.1125 C385.403371,31.6541667 386.794371,27.3563333 386.794371,23.219 C386.794371,19.0816667 385.439038,15.622 382.728371,12.84 C380.017704,10.058 376.308371,8.667 371.600371,8.667 C368.747038,8.667 366.232538,9.16633333 364.056871,10.165 C361.881204,11.1636667 360.401038,12.1623333 359.616371,13.161 L358.439371,14.659 L356.299371,27.927 L348.167371,27.927 L348.167371,11.556 C348.666704,10.5573333 349.647538,9.309 351.109871,7.811 C352.572204,6.313 354.105871,5.04683333 355.710871,4.0125 C357.315871,2.97816667 359.527204,2.05083333 362.344871,1.2305 C365.162538,0.410166667 368.176371,0 371.386371,0 C379.589704,0 386.081038,2.1935 390.860371,6.5805 C395.639704,10.9675 398.029371,16.7633333 398.029371,23.968 C398.029371,27.7486667 396.941538,31.7611667 394.765871,36.0055 C392.590204,40.2498333 389.968704,44.084 386.901371,47.508 C383.834038,50.932 380.517038,54.1776667 376.950371,57.245 C370.530371,62.809 365.430038,66.5183333 361.649371,68.373 L389.148371,68.373 L392.679371,56.496 L400.490371,56.496 L400.490371,76.505 Z" id="Path" fill="#CCC" fill-rule="nonzero"></path>
            <path d="M479.991371,39.055 C479.991371,50.7536667 476.870538,60.0983333 470.628871,67.089 C464.387204,74.0796667 456.362204,77.575 446.553871,77.575 C436.745538,77.575 428.738371,74.0975 422.532371,67.1425 C416.326371,60.1875 413.223371,50.825 413.223371,39.055 C413.223371,27.285 416.326371,17.8333333 422.532371,10.7 C428.738371,3.56666667 436.727704,0 446.500371,0 C456.273038,0 464.298038,3.56666667 470.575371,10.7 C476.852704,17.8333333 479.991371,27.285 479.991371,39.055 Z M424.351371,39.055 C424.351371,47.4723333 426.330871,54.57 430.289871,60.348 C434.248871,66.126 439.670204,69.015 446.553871,69.015 C453.437538,69.015 458.841038,66.126 462.764371,60.348 C466.687704,54.57 468.649371,47.4545 468.649371,39.0015 C468.649371,30.5485 466.687704,23.3795 462.764371,17.4945 C458.841038,11.6095 453.401871,8.667 446.446871,8.667 C439.491871,8.667 434.070538,11.6095 430.182871,17.4945 C426.295204,23.3795 424.351371,30.5663333 424.351371,39.055 Z" id="Shape" fill="#CCC" fill-rule="nonzero"></path>
            <path d="M545.261371,76.505 L493.152371,76.505 L493.152371,68.48 C497.147038,65.8406667 501.480538,62.6128333 506.152871,58.7965 C510.825204,54.9801667 514.837704,51.36 518.190371,47.936 C521.543038,44.512 524.610371,40.5708333 527.392371,36.1125 C530.174371,31.6541667 531.565371,27.3563333 531.565371,23.219 C531.565371,19.0816667 530.210038,15.622 527.499371,12.84 C524.788704,10.058 521.079371,8.667 516.371371,8.667 C513.518038,8.667 511.003538,9.16633333 508.827871,10.165 C506.652204,11.1636667 505.172038,12.1623333 504.387371,13.161 L503.210371,14.659 L501.070371,27.927 L492.938371,27.927 L492.938371,11.556 C493.437704,10.5573333 494.418538,9.309 495.880871,7.811 C497.343204,6.313 498.876871,5.04683333 500.481871,4.0125 C502.086871,2.97816667 504.298204,2.05083333 507.115871,1.2305 C509.933538,0.410166667 512.947371,0 516.157371,0 C524.360704,0 530.852038,2.1935 535.631371,6.5805 C540.410704,10.9675 542.800371,16.7633333 542.800371,23.968 C542.800371,27.7486667 541.712538,31.7611667 539.536871,36.0055 C537.361204,40.2498333 534.739704,44.084 531.672371,47.508 C528.605038,50.932 525.288038,54.1776667 521.721371,57.245 C515.301371,62.809 510.201038,66.5183333 506.420371,68.373 L533.919371,68.373 L537.450371,56.496 L545.261371,56.496 L545.261371,76.505 Z" id="Path" fill="#CCC" fill-rule="nonzero"></path>
            <path d="M585.065371,69.015 C590.201371,69.015 594.285204,67.41 597.316871,64.2 C600.348538,60.99 601.864371,57.0131667 601.864371,52.2695 C601.864371,47.5258333 600.241538,43.763 596.995871,40.981 C593.750204,38.199 589.880371,36.808 585.386371,36.808 C582.319038,36.808 579.608371,37.2181667 577.254371,38.0385 C574.900371,38.8588333 573.295371,39.6613333 572.439371,40.446 L571.262371,41.623 L560.883371,41.623 L560.883371,1.177 L609.782371,1.177 L609.782371,20.116 L603.041371,20.116 L599.510371,9.309 L571.690371,9.309 L571.690371,31.244 C574.543704,29.104 579.216038,28.034 585.707371,28.034 C593.910704,28.034 600.526871,30.3701667 605.555871,35.0425 C610.584871,39.7148333 613.099371,45.6176667 613.099371,52.751 C613.099371,59.8843333 610.477871,65.8228333 605.234871,70.5665 C599.991871,75.3101667 593.197371,77.682 584.851371,77.682 C575.649371,77.682 568.230704,75.542 562.595371,71.262 C561.240038,70.2633333 560.312704,69.443 559.813371,68.801 L558.957371,67.731 L558.957371,55.105 L567.089371,55.105 L569.229371,64.628 C570.085371,65.698 572.064871,66.6966667 575.167871,67.624 C578.270871,68.5513333 581.570038,69.015 585.065371,69.015 Z" id="Path" fill="#CCC" fill-rule="nonzero"></path>
        </g>
        <g id="droit" transform="translate(790.9271, 13.5489)">
            <path d="M486.803388,123.388227 C486.803388,133.143577 484.280188,142.906596 479.233788,151.649599 L424.904465,245.744243 L354.262541,123.388227 L486.803388,123.388227 Z" id="Path" fill="#CCC" fill-rule="nonzero" transform="translate(420.533, 184.5662) scale(-1, 1) rotate(-180) translate(-420.533, -184.5662)"></path>
            <polygon id="Path" fill="#CCC" fill-rule="nonzero" transform="translate(354.2541, 184.5509) scale(-1, 1) rotate(-180) translate(-354.2541, -184.5509)" points="354.265609 123.35755 424.907533 245.713566 424.884525 245.744243 283.600676 245.744243"></polygon>
            <path d="M424.906766,245.741942 L479.22842,339.836587 C484.282489,348.579589 486.805689,358.334939 486.805689,368.097959 L354.264842,368.097959 L424.906766,245.741942 Z" id="Path" fill="#CCC" fill-rule="nonzero" transform="translate(420.5353, 306.92) scale(-1, 1) rotate(-180) translate(-420.5353, -306.92)"></path>
            <path d="M424.886059,8.57726864 L370.564406,102.671913 C365.510337,111.414916 358.324202,118.478341 349.872633,123.356016 L283.60221,8.57726864 L424.886059,8.57726864 Z" id="Path" fill="#CCC" fill-rule="nonzero" transform="translate(354.2441, 65.9666) scale(-1, 1) rotate(-180) translate(-354.2441, -65.9666)"></path>
            <path d="M349.8734,115.784116 C341.421832,120.661791 331.712497,123.353715 321.612029,123.353715 L212.961052,123.353715 L283.602977,1.00536851 L349.8734,115.784116 Z" id="Path" fill="#CCC" fill-rule="nonzero" transform="translate(281.4172, 62.1795) scale(-1, 1) rotate(-180) translate(-281.4172, -62.1795)"></path>
            <polygon id="Path" fill="#CCC" fill-rule="nonzero" transform="translate(212.9434, 62.178) scale(-1, 1) rotate(-180) translate(-212.9434, -62.178)" points="283.604511 1 212.962586 123.356016 212.92424 123.356016 142.282315 1"></polygon>
            <path d="M76.0134257,123.353715 C67.5618568,118.47604 60.3757225,111.412615 55.3293229,102.661943 L1,8.57496785 L142.283849,8.57496785 L76.0134257,123.353715 Z" id="Path" fill="#CCC" fill-rule="nonzero" transform="translate(71.6419, 65.9643) scale(-1, 1) rotate(-180) translate(-71.6419, -65.9643)"></path>
            <path d="M212.923473,123.358317 L104.272496,123.358317 C94.1796972,123.358317 84.4626938,120.666393 76.0111249,115.788718 L142.281548,1.00230079 L212.923473,123.358317 Z" id="Path" fill="#CCC" fill-rule="nonzero" transform="translate(144.4673, 62.1803) scale(-1, 1) rotate(-180) translate(-144.4673, -62.1803)"></path>
        </g>
    </g>
</svg>